<svg width="24" height="24" viewBox="0 0 24 24" fill="none" xmlns="http://www.w3.org/2000/svg">
<path d="M19.875 19.5C19.6525 19.5 19.435 19.566 19.25 19.6896C19.065 19.8132 18.9208 19.9889 18.8357 20.1945C18.7505 20.4 18.7282 20.6262 18.7716 20.8445C18.815 21.0627 18.9222 21.2632 19.0795 21.4205C19.2368 21.5778 19.4373 21.685 19.6555 21.7284C19.8738 21.7718 20.1 21.7495 20.3055 21.6643C20.5111 21.5792 20.6868 21.435 20.8104 21.25C20.934 21.065 21 20.8475 21 20.625C21 20.3267 20.8815 20.0405 20.6705 19.8295C20.4595 19.6185 20.1734 19.5 19.875 19.5ZM19.875 21C19.8008 21 19.7283 20.978 19.6667 20.9368C19.605 20.8956 19.5569 20.837 19.5285 20.7685C19.5002 20.7 19.4927 20.6246 19.5072 20.5518C19.5217 20.4791 19.5574 20.4123 19.6098 20.3598C19.6623 20.3074 19.7291 20.2717 19.8018 20.2572C19.8746 20.2427 19.95 20.2501 20.0185 20.2785C20.087 20.3069 20.1456 20.355 20.1868 20.4167C20.228 20.4783 20.25 20.5508 20.25 20.625C20.25 20.7245 20.2105 20.8199 20.1402 20.8902C20.0699 20.9605 19.9745 21 19.875 21Z" fill="#2E394C"/>
<path d="M20.25 18.03V9.375C20.25 9.27555 20.2105 9.18015 20.1402 9.10984C20.0699 9.03953 19.9745 9 19.875 9C19.7756 9 19.6802 9.03953 19.6098 9.10984C19.5395 9.18015 19.5 9.27555 19.5 9.375V11.25H18C17.9006 11.25 17.8052 11.2895 17.7348 11.3598C17.6645 11.4302 17.625 11.5255 17.625 11.625C17.625 11.7245 17.6645 11.8198 17.7348 11.8902C17.8052 11.9605 17.9006 12 18 12H19.5V16.5H18.375C17.679 16.5008 17.0118 16.7776 16.5197 17.2697C16.0276 17.7618 15.7508 18.429 15.75 19.125V22.5H13.5C13.4006 22.5 13.3052 22.5395 13.2348 22.6098C13.1645 22.6802 13.125 22.7755 13.125 22.875C13.125 22.9745 13.1645 23.0698 13.2348 23.1402C13.3052 23.2105 13.4006 23.25 13.5 23.25H19.875C20.5351 23.2449 21.1691 22.9913 21.6506 22.5397C22.1321 22.0881 22.4258 21.4716 22.473 20.8132C22.5203 20.1547 22.3178 19.5026 21.9058 18.9868C21.4938 18.471 20.9026 18.1294 20.25 18.03ZM19.875 22.5C19.3779 22.4994 18.9014 22.3017 18.5498 21.9502C18.1983 21.5986 18.0006 21.1221 18 20.625C18.0002 20.3458 18.0632 20.0702 18.1845 19.8187C18.2204 19.7303 18.2212 19.6315 18.1867 19.5425C18.1523 19.4535 18.0852 19.3809 17.9991 19.3396C17.913 19.2984 17.8145 19.2915 17.7235 19.3204C17.6325 19.3493 17.556 19.4118 17.5095 19.4951C17.2722 19.9886 17.1959 20.5441 17.2913 21.0833C17.3867 21.6224 17.649 22.118 18.0413 22.5H16.5V19.125C16.5006 18.6279 16.6983 18.1514 17.0498 17.7998C17.4014 17.4483 17.8779 17.2506 18.375 17.25H19.5V18.0304C19.2383 18.0677 18.9838 18.1445 18.7451 18.258C18.6977 18.2772 18.6547 18.306 18.6188 18.3425C18.5829 18.379 18.5548 18.4224 18.5363 18.4702C18.5179 18.5179 18.5094 18.5689 18.5114 18.6201C18.5133 18.6712 18.5258 18.7215 18.5479 18.7676C18.5701 18.8138 18.6014 18.8549 18.6401 18.8885C18.6787 18.9221 18.7238 18.9474 18.7726 18.9629C18.8214 18.9784 18.8728 18.9837 18.9238 18.9786C18.9747 18.9735 19.0241 18.9579 19.0688 18.933C19.3203 18.8122 19.5959 18.7497 19.875 18.75C20.3723 18.75 20.8492 18.9475 21.2008 19.2992C21.5525 19.6508 21.75 20.1277 21.75 20.625C21.75 21.1223 21.5525 21.5992 21.2008 21.9508C20.8492 22.3025 20.3723 22.5 19.875 22.5Z" fill="#2E394C"/>
<path d="M13.875 15C13.9745 15 14.0698 14.9605 14.1402 14.8902C14.2105 14.8199 14.25 14.7245 14.25 14.625C14.25 14.5256 14.2105 14.4302 14.1402 14.3598C14.0698 14.2895 13.9745 14.25 13.875 14.25H3V13.5H13.875C13.9745 13.5 14.0698 13.4605 14.1402 13.3902C14.2105 13.3199 14.25 13.2245 14.25 13.125C14.25 13.0256 14.2105 12.9302 14.1402 12.8598C14.0698 12.7895 13.9745 12.75 13.875 12.75H13.0429L12.8554 12H15.375C15.4745 12 15.5698 11.9605 15.6402 11.8902C15.7105 11.8199 15.75 11.7245 15.75 11.625C15.75 11.5256 15.7105 11.4302 15.6402 11.3598C15.5698 11.2895 15.4745 11.25 15.375 11.25H12.6679L11.9887 8.53388C11.9684 8.4528 11.9216 8.3808 11.8557 8.32939C11.7898 8.27794 11.7086 8.25 11.625 8.25H9.08813L8.385 6H15.375C15.4745 6 15.5698 5.96048 15.6402 5.89016C15.7105 5.81985 15.75 5.72445 15.75 5.625C15.75 5.52555 15.7105 5.43015 15.6402 5.35984C15.5698 5.28953 15.4745 5.25 15.375 5.25H8.25V4.5H19.5V5.25H17.625C17.5255 5.25 17.4302 5.28953 17.3598 5.35984C17.2895 5.43015 17.25 5.52555 17.25 5.625C17.25 5.72445 17.2895 5.81985 17.3598 5.89016C17.4302 5.96048 17.5255 6 17.625 6H19.5V7.875C19.5 7.97445 19.5395 8.06985 19.6098 8.14016C19.6801 8.21048 19.7756 8.25 19.875 8.25C19.9744 8.25 20.0699 8.21048 20.1402 8.14016C20.2105 8.06985 20.25 7.97445 20.25 7.875V6H20.625C20.9233 6 21.2095 5.88146 21.4205 5.67049C21.6315 5.45951 21.75 5.17335 21.75 4.875C21.75 4.57665 21.6315 4.29049 21.4205 4.07951C21.2095 3.86854 20.9233 3.75 20.625 3.75H20.2125C20.1255 3.32678 19.8952 2.94651 19.5605 2.67327C19.2258 2.40003 18.8071 2.25054 18.375 2.25H17.25V1.875C17.25 1.57663 17.1315 1.29048 16.9205 1.07951C16.7095 0.868526 16.4234 0.75 16.125 0.75H12.375C12.0766 0.75 11.7905 0.868526 11.5795 1.07951C11.3685 1.29048 11.25 1.57663 11.25 1.875V2.25H9.375C8.8779 2.2506 8.40135 2.44833 8.04982 2.79983C7.69834 3.15134 7.5006 3.6279 7.5 4.125V5.625C7.49989 5.66314 7.50555 5.70109 7.51688 5.7375L8.3025 8.25H4.875C4.79141 8.25 4.71019 8.27794 4.6443 8.32939C4.57838 8.3808 4.53157 8.4528 4.51125 8.53388L3.45712 12.75H2.625C2.52554 12.75 2.43016 12.7895 2.35983 12.8598C2.28951 12.9302 2.25 13.0256 2.25 13.125V14.625C2.25 14.7245 2.28951 14.8199 2.35983 14.8902C2.43016 14.9605 2.52554 15 2.625 15H12.3394L11.6576 22.5H4.84238L4.26 16.0913C4.25557 16.0422 4.24151 15.9945 4.21864 15.9509C4.1958 15.9073 4.16456 15.8686 4.12672 15.837C4.08892 15.8055 4.04527 15.7817 3.99825 15.767C3.95122 15.7523 3.9018 15.7471 3.85275 15.7515C3.8037 15.7559 3.756 15.77 3.71239 15.7929C3.66877 15.8157 3.63008 15.8469 3.59853 15.8848C3.56698 15.9226 3.54319 15.9662 3.52851 16.0133C3.51384 16.0603 3.50857 16.1097 3.513 16.1588L4.125 22.9088C4.13344 23.0022 4.17667 23.0892 4.24609 23.1524C4.31554 23.2155 4.40614 23.2504 4.5 23.25H12C12.0939 23.2504 12.1845 23.2155 12.2539 23.1524C12.3233 23.0892 12.3666 23.0022 12.375 22.9088L13.0924 15H13.875ZM21 4.875C21 4.97445 20.9605 5.06985 20.8902 5.14016C20.8199 5.21048 20.7244 5.25 20.625 5.25H20.25V4.5H20.625C20.7244 4.5 20.8199 4.53953 20.8902 4.60984C20.9605 4.68015 21 4.77555 21 4.875ZM12 1.875C12 1.77554 12.0395 1.68016 12.1098 1.60983C12.1802 1.53951 12.2755 1.5 12.375 1.5H16.125C16.2245 1.5 16.3198 1.53951 16.3902 1.60983C16.4605 1.68016 16.5 1.77554 16.5 1.875V2.25H12V1.875ZM9.375 3H18.375C18.6076 3.00029 18.8344 3.07252 19.0244 3.20679C19.2143 3.34107 19.358 3.53081 19.4359 3.75H8.31413C8.39197 3.53081 8.53571 3.34107 8.72565 3.20679C8.91559 3.07252 9.14239 3.00029 9.375 3ZM5.16788 9H11.3321L12.2696 12.75H4.23038L5.16788 9Z" fill="#2E394C"/>
<path d="M10.8638 10.0339C10.8434 9.9528 10.7966 9.8808 10.7307 9.82939C10.6648 9.77794 10.5836 9.75 10.5 9.75H6C5.91638 9.75 5.83519 9.77794 5.7693 9.82939C5.70338 9.8808 5.65654 9.9528 5.63625 10.0339L5.26125 11.5339C5.24738 11.5891 5.24633 11.6469 5.25814 11.7027C5.26995 11.7584 5.29429 11.8108 5.32935 11.8557C5.36445 11.9006 5.4093 11.937 5.46053 11.962C5.51175 11.987 5.568 12 5.625 12H10.875C10.932 12 10.9883 11.987 11.0395 11.962C11.0907 11.937 11.1356 11.9006 11.1706 11.8557C11.2057 11.8108 11.2301 11.7584 11.2419 11.7027C11.2536 11.6469 11.2526 11.5891 11.2388 11.5339L10.8638 10.0339ZM6.10538 11.25L6.29288 10.5H10.2071L10.3946 11.25H6.10538Z" fill="#2E394C"/>
<path d="M7.875 20.6251C7.875 20.7246 7.91453 20.8199 7.98484 20.8903C8.05515 20.9606 8.15055 21.0001 8.25 21.0001C8.56391 20.9983 8.87396 20.9306 9.16005 20.8014C9.44617 20.6722 9.70196 20.4844 9.91087 20.2501L9.9735 20.4849C9.9948 20.5647 10.0419 20.6352 10.1074 20.6855C10.1729 20.7358 10.2531 20.7631 10.3357 20.7631C10.3686 20.7629 10.4012 20.7585 10.4329 20.75C10.4805 20.7372 10.525 20.7152 10.5641 20.6852C10.6032 20.6553 10.636 20.6179 10.6606 20.5752C10.6852 20.5325 10.7012 20.4855 10.7076 20.4367C10.714 20.3878 10.7107 20.3382 10.698 20.2906L10.425 19.2657C10.4122 19.2182 10.3902 19.1736 10.3603 19.1345C10.3303 19.0954 10.2929 19.0626 10.2502 19.038C10.2076 19.0134 10.1605 18.9974 10.1116 18.991C10.0628 18.9846 10.0132 18.9878 9.96562 19.0006L8.94112 19.2751C8.89354 19.2879 8.84895 19.3098 8.80987 19.3398C8.7708 19.3698 8.73802 19.4072 8.71342 19.4499C8.68879 19.4925 8.67281 19.5396 8.6664 19.5885C8.65999 19.6373 8.66325 19.6869 8.676 19.7345C8.69899 19.8177 8.7504 19.8902 8.82131 19.9395C8.89219 19.9887 8.97814 20.0116 9.06412 20.0041C8.823 20.1647 8.53972 20.2503 8.25 20.2501C8.15055 20.2501 8.05515 20.2896 7.98484 20.3599C7.91453 20.4303 7.875 20.5256 7.875 20.6251Z" fill="#2E394C"/>
<path d="M5.42701 19.6407C5.41426 19.6883 5.411 19.7379 5.41741 19.7867C5.42382 19.8356 5.4398 19.8827 5.46443 19.9253C5.48903 19.968 5.52181 20.0054 5.56088 20.0354C5.59996 20.0653 5.64455 20.0873 5.69213 20.1001L6.71664 20.3746C6.76422 20.3873 6.81384 20.3906 6.8627 20.3841C6.91152 20.3777 6.95862 20.3617 7.00126 20.3371C7.0874 20.2874 7.15025 20.2055 7.17601 20.1095L7.45051 19.085C7.46326 19.0374 7.46652 18.9878 7.46011 18.9389C7.4537 18.8901 7.43772 18.843 7.41312 18.8003C7.38849 18.7577 7.35571 18.7203 7.31664 18.6903C7.27756 18.6603 7.23297 18.6383 7.18539 18.6256C7.10101 18.6035 7.01154 18.612 6.93286 18.6496C6.85419 18.6872 6.79137 18.7515 6.75564 18.8311C6.75564 18.8041 6.75001 18.7771 6.75001 18.7501C6.75155 18.4874 6.82329 18.2299 6.95776 18.0042C7.0067 17.9181 7.0196 17.8162 6.99369 17.7206C6.96774 17.625 6.90504 17.5436 6.81927 17.4941C6.73351 17.4446 6.63166 17.431 6.53592 17.4563C6.44019 17.4816 6.35836 17.5438 6.30826 17.6292C6.10775 17.9688 6.00136 18.3557 6.00001 18.7501C6.0014 18.984 6.04081 19.2162 6.11664 19.4375L5.88638 19.3756C5.83883 19.3628 5.78918 19.3596 5.74036 19.366C5.69153 19.3724 5.64443 19.3884 5.6018 19.413C5.55912 19.4376 5.52173 19.4704 5.49173 19.5095C5.46177 19.5485 5.43976 19.5931 5.42701 19.6407Z" fill="#2E394C"/>
<path d="M8.51513 15.8598C8.44481 15.7895 8.34945 15.75 8.25 15.75C8.15059 15.75 8.05523 15.7895 7.98488 15.8598L7.23488 16.6098C7.1646 16.6802 7.12508 16.7755 7.12508 16.8749C7.12508 16.9744 7.1646 17.0697 7.23488 17.1401L7.98488 17.8901C8.0556 17.9584 8.15033 17.9962 8.24865 17.9953C8.34698 17.9945 8.44102 17.955 8.51055 17.8855C8.58011 17.816 8.61952 17.7219 8.62039 17.6236C8.62125 17.5252 8.58345 17.4305 8.51513 17.3598L8.41613 17.2608C8.649 17.2872 8.87231 17.3682 9.06784 17.4974C9.26336 17.6266 9.42555 17.8002 9.54112 18.0041C9.56456 18.0489 9.59685 18.0885 9.636 18.1205C9.67515 18.1525 9.72037 18.1763 9.76894 18.1904C9.8175 18.2045 9.86842 18.2086 9.91864 18.2025C9.96885 18.1964 10.0173 18.1802 10.0611 18.1549C10.1049 18.1296 10.1431 18.0957 10.1734 18.0552C10.2038 18.0148 10.2256 17.9686 10.2376 17.9195C10.2497 17.8703 10.2516 17.8193 10.2435 17.7694C10.2352 17.7195 10.217 17.6718 10.1899 17.6291C10.005 17.3099 9.74449 17.0409 9.43136 16.8459C9.11824 16.6509 8.76203 16.5357 8.394 16.5104L8.51362 16.3908C8.54865 16.3561 8.57648 16.3148 8.59553 16.2693C8.61454 16.2238 8.6244 16.175 8.62455 16.1256C8.6247 16.0763 8.6151 16.0274 8.59631 15.9818C8.57756 15.9362 8.54996 15.8948 8.51513 15.8598Z" fill="#2E394C"/>
</svg>
