<svg width="25" height="24" viewBox="0 0 25 24" fill="none" xmlns="http://www.w3.org/2000/svg">
<path fill-rule="evenodd" clip-rule="evenodd" d="M7.8752 10.9993C7.8752 10.4473 8.3232 9.99927 8.8752 9.99927C9.4272 9.99927 9.8752 10.4473 9.8752 10.9993C9.8752 11.5513 9.4272 11.9993 8.8752 11.9993C8.3232 11.9993 7.8752 11.5513 7.8752 10.9993ZM12.8752 9.99927C12.3232 9.99927 11.8752 10.4473 11.8752 10.9993C11.8752 11.5513 12.3232 11.9993 12.8752 11.9993C13.4272 11.9993 13.8752 11.5513 13.8752 10.9993C13.8752 10.4473 13.4272 9.99927 12.8752 9.99927ZM16.8752 9.99927C16.3232 9.99927 15.8752 10.4473 15.8752 10.9993C15.8752 11.5513 16.3232 11.9993 16.8752 11.9993C17.4272 11.9993 17.8752 11.5513 17.8752 10.9993C17.8752 10.4473 17.4272 9.99927 16.8752 9.99927ZM20.7736 12.2942C20.2666 15.5482 17.6436 18.2472 14.3946 18.8562C12.8256 19.1522 11.2276 18.9832 9.7776 18.3692C9.3666 18.1952 8.9416 18.1072 8.5246 18.1072C8.3346 18.1072 8.1466 18.1252 7.9616 18.1622L5.1496 18.7242L5.7126 15.9072C5.8306 15.3222 5.7586 14.6962 5.5056 14.0972C4.8916 12.6472 4.7236 11.0502 5.0186 9.48017C5.6276 6.23117 8.3256 3.60817 11.5806 3.10117C14.1706 2.69817 16.7036 3.51417 18.5316 5.34217C20.3606 7.17117 21.1776 9.70517 20.7736 12.2942ZM19.9466 3.92817C17.6616 1.64417 14.5016 0.625171 11.2726 1.12417C7.1956 1.76017 3.8156 5.04417 3.0526 9.11117C2.6846 11.0692 2.8966 13.0632 3.6636 14.8762C3.7606 15.1072 3.7906 15.3222 3.7526 15.5152L2.8946 19.8032C2.8286 20.1312 2.9316 20.4702 3.1686 20.7062C3.3576 20.8962 3.6126 20.9992 3.8756 20.9992C3.9406 20.9992 4.0056 20.9932 4.0716 20.9802L8.3546 20.1232C8.6006 20.0762 8.8386 20.1452 8.9976 20.2112C10.8126 20.9782 12.8066 21.1892 14.7626 20.8222C18.8306 20.0592 22.1146 16.6792 22.7506 12.6022C23.2526 9.37517 22.2316 6.21317 19.9466 3.92817Z" fill="#969CA5"/>
<mask id="mask0_50_3344" style="mask-type:luminance" maskUnits="userSpaceOnUse" x="2" y="1" width="21" height="20">
<path fill-rule="evenodd" clip-rule="evenodd" d="M7.8752 10.9993C7.8752 10.4473 8.3232 9.99927 8.8752 9.99927C9.4272 9.99927 9.8752 10.4473 9.8752 10.9993C9.8752 11.5513 9.4272 11.9993 8.8752 11.9993C8.3232 11.9993 7.8752 11.5513 7.8752 10.9993ZM12.8752 9.99927C12.3232 9.99927 11.8752 10.4473 11.8752 10.9993C11.8752 11.5513 12.3232 11.9993 12.8752 11.9993C13.4272 11.9993 13.8752 11.5513 13.8752 10.9993C13.8752 10.4473 13.4272 9.99927 12.8752 9.99927ZM16.8752 9.99927C16.3232 9.99927 15.8752 10.4473 15.8752 10.9993C15.8752 11.5513 16.3232 11.9993 16.8752 11.9993C17.4272 11.9993 17.8752 11.5513 17.8752 10.9993C17.8752 10.4473 17.4272 9.99927 16.8752 9.99927ZM20.7736 12.2942C20.2666 15.5482 17.6436 18.2472 14.3946 18.8562C12.8256 19.1522 11.2276 18.9832 9.7776 18.3692C9.3666 18.1952 8.9416 18.1072 8.5246 18.1072C8.3346 18.1072 8.1466 18.1252 7.9616 18.1622L5.1496 18.7242L5.7126 15.9072C5.8306 15.3222 5.7586 14.6962 5.5056 14.0972C4.8916 12.6472 4.7236 11.0502 5.0186 9.48017C5.6276 6.23117 8.3256 3.60817 11.5806 3.10117C14.1706 2.69817 16.7036 3.51417 18.5316 5.34217C20.3606 7.17117 21.1776 9.70517 20.7736 12.2942ZM19.9466 3.92817C17.6616 1.64417 14.5016 0.625171 11.2726 1.12417C7.1956 1.76017 3.8156 5.04417 3.0526 9.11117C2.6846 11.0692 2.8966 13.0632 3.6636 14.8762C3.7606 15.1072 3.7906 15.3222 3.7526 15.5152L2.8946 19.8032C2.8286 20.1312 2.9316 20.4702 3.1686 20.7062C3.3576 20.8962 3.6126 20.9992 3.8756 20.9992C3.9406 20.9992 4.0056 20.9932 4.0716 20.9802L8.3546 20.1232C8.6006 20.0762 8.8386 20.1452 8.9976 20.2112C10.8126 20.9782 12.8066 21.1892 14.7626 20.8222C18.8306 20.0592 22.1146 16.6792 22.7506 12.6022C23.2526 9.37517 22.2316 6.21317 19.9466 3.92817Z" fill="white"/>
</mask>
<g mask="url(#mask0_50_3344)">
<rect x="0.875" width="24" height="24" fill="#969CA5"/>
</g>
</svg>
