<svg width="18" height="18" viewBox="0 0 18 18" fill="none" xmlns="http://www.w3.org/2000/svg">
<path fill-rule="evenodd" clip-rule="evenodd" d="M16.4975 8.14508H16.5C16.9592 8.14508 17.3325 8.51675 17.3333 8.97591C17.34 11.2017 16.4792 13.2976 14.9092 14.8759C13.34 16.4542 11.25 17.3267 9.02417 17.3334H9C6.7825 17.3334 4.69667 16.4734 3.12417 14.9092C1.54583 13.3401 0.673335 11.2501 0.666668 9.02425C0.660002 6.79758 1.52084 4.70258 3.09084 3.12425C4.66 1.54591 6.75 0.673415 8.97584 0.666748C9.63834 0.676748 10.3133 0.743415 10.96 0.898415C11.4067 1.00675 11.6825 1.45675 11.5742 1.90425C11.4667 2.35091 11.0142 2.62591 10.5692 2.51925C10.0517 2.39425 9.5025 2.34175 8.98083 2.33341C7.2 2.33841 5.5275 3.03675 4.2725 4.29925C3.01667 5.56175 2.32833 7.23841 2.33333 9.01925C2.33833 10.8001 3.03667 12.4717 4.29917 13.7276C5.5575 14.9784 7.22583 15.6667 9 15.6667H9.01917C10.8 15.6617 12.4725 14.9634 13.7275 13.7009C14.9833 12.4376 15.6717 10.7617 15.6667 8.98092C15.6658 8.52091 16.0375 8.14591 16.4975 8.14508ZM5.91083 8.41083C6.23667 8.085 6.76333 8.085 7.08917 8.41083L8.95917 10.2808L14.2067 4.28416C14.51 3.94 15.0358 3.90333 15.3825 4.20667C15.7283 4.50917 15.7633 5.03583 15.46 5.3825L9.62667 12.0492C9.475 12.2225 9.25833 12.325 9.0275 12.3333H9C8.77917 12.3333 8.5675 12.2458 8.41083 12.0892L5.91083 9.58916C5.585 9.26333 5.585 8.73666 5.91083 8.41083Z" fill="#226E54"/>
</svg>
