<svg width="25" height="24" viewBox="0 0 25 24" fill="none" xmlns="http://www.w3.org/2000/svg">
<path d="M9.81651 19.8943V17.1342C9.81649 16.4322 10.3888 15.8617 11.0979 15.857H13.6954C14.4079 15.857 14.9855 16.4288 14.9855 17.1342V17.1342V19.9028C14.9853 20.4989 15.4658 20.986 16.0677 21H17.7994C19.5256 21 20.925 19.6146 20.925 17.9056V17.9056V10.0541C20.9158 9.38174 20.5969 8.75041 20.0592 8.33973L14.137 3.61677C13.0995 2.79441 11.6246 2.79441 10.5871 3.61677L4.69084 8.3483C4.15104 8.75732 3.83166 9.3897 3.82501 10.0626V17.9056C3.82501 19.6146 5.2244 21 6.95063 21H8.68228C9.29913 21 9.79919 20.5049 9.79919 19.8943V19.8943" stroke="#969CA5" stroke-width="2" stroke-linecap="round" stroke-linejoin="round"/>
</svg>
