<svg width="24" height="25" viewBox="0 0 24 25" fill="none" xmlns="http://www.w3.org/2000/svg">
<path fill-rule="evenodd" clip-rule="evenodd" d="M17.7689 8.65988H22C22 5.26267 19.9644 3.27808 16.5156 3.27808H7.48444C4.03556 3.27808 2 5.26267 2 8.61655V15.9396C2 19.2935 4.03556 21.2781 7.48444 21.2781H16.5156C19.9644 21.2781 22 19.2935 22 15.9396V15.6276H17.7689C15.8052 15.6276 14.2133 14.0756 14.2133 12.1611C14.2133 10.2466 15.8052 8.69454 17.7689 8.69454V8.65988ZM17.7689 10.1505H21.2533C21.6657 10.1505 22 10.4764 22 10.8785V13.409C21.9952 13.8091 21.6637 14.1323 21.2533 14.137H17.8489C16.8548 14.15 15.9855 13.4864 15.76 12.5424C15.6471 11.9564 15.8056 11.3516 16.1931 10.8903C16.5805 10.4289 17.1573 10.1582 17.7689 10.1505ZM17.92 12.8111H18.2489C18.6711 12.8111 19.0133 12.4774 19.0133 12.0658C19.0133 11.6541 18.6711 11.3204 18.2489 11.3204H17.92C17.7181 11.3181 17.5236 11.3947 17.38 11.5331C17.2364 11.6715 17.1555 11.8602 17.1556 12.0571C17.1555 12.4701 17.4964 12.8063 17.92 12.8111ZM6.73778 8.65988H12.3822C12.8044 8.65988 13.1467 8.32619 13.1467 7.91457C13.1467 7.50295 12.8044 7.16927 12.3822 7.16927H6.73778C6.31903 7.16924 5.9782 7.49767 5.97333 7.9059C5.97331 8.31895 6.31415 8.65513 6.73778 8.65988Z" fill="#CACACA"/>
</svg>
